{"title":"I Hate Love Storys (2010) 1/5 PDVD Rip x264 MP3 Multi-Subs [Tikr","uid":5671051,"size":950426914,"categoryP":"video","categoryS":"movies","magnet":"?xt=urn:btih:cc101aa8cc8a4d88e3aac13e81a33e8746d5437b&amp;dn=I+Hate+Love+Storys+%282010%29+1%2F5+PDVD+Rip+x264+MP3+Multi-Subs+%5BTikr&amp;tr=udp%3A%2F%2Ftracker.openbittorrent.com%3A80&amp;tr=udp%3A%2F%2Fopen.demonii.com%3A1337&amp;tr=udp%3A%2F%2Ftracker.coppersurfer.tk%3A6969&amp;tr=udp%3A%2F%2Fexodus.desync.com%3A6969","seeders":0,"leechers":1,"uploader":"luvwithromio","files":3,"time":1278349692,"description":"Format                           : AVI\nFormat/Info                      : Audio Video Interleave\nFile size                        : 898 MiB\nDuration                         : 2h 10mn\nOverall bit rate                 : 959 Kbps\n\nVideo\nID                               : 0\nFormat                           : AVC\nFormat/Info                      : Advanced Video Codec\nFormat profile                   : &lt;a class=&quot;__cf_email__&quot; href=&quot;/cdn-cgi/l/email-protection&quot; data-cfemail=&quot;dc91bdb5b29c90eef2ed&quot;&gt;[email&amp;#160;protected]&lt;/a&gt;&lt;script cf-hash='f9e31' type=&quot;text/javascript&quot;&gt;\n/* &lt;![CDATA[ */!function(){try{var t=&quot;currentScript&quot;in document?document.currentScript:function(){for(var t=document.getElementsByTagName(&quot;script&quot;),e=t.length;e--;)if(t[e].getAttribute(&quot;cf-hash&quot;))return t[e]}();if(t&amp;&amp;t.previousSibling){var e,r,n,i,c=t.previousSibling,a=c.getAttribute(&quot;data-cfemail&quot;);if(a){for(e=&quot;&quot;,r=parseInt(a.substr(0,2),16),n=2;a.length-n;n+=2)i=parseInt(a.substr(n,2),16)^r,e+=String.fromCharCode(i);e=document.createTextNode(e),c.parentNode.replaceChild(e,c)}}}catch(u){}}();/* ]]&gt; */&lt;/script&gt;\nFormat settings, CABAC           : Yes\nFormat settings, ReFrames        : 1 frame\nCodec ID                         : H264\nDuration                         : 2h 10mn\nBit rate                         : 850 Kbps\nWidth                            : 640 pixels\nHeight                           : 272 pixels\nDisplay aspect ratio             : 2.35:1\nFrame rate                       : 23.976 fps\nResolution                       : 8 bits\nColorimetry                      : 4:2:0\nScan type                        : Progressive\nBits/(Pixel*Frame)               : 0.204\nStream size                      : 796 MiB (89%)\nWriting library                  : x264 core 67\n\nAudio\nID                               : 1\nFormat                           : MPEG Audio\nFormat version                   : Version 1\nFormat profile                   : Layer 3\nCodec ID                         : 55\nCodec ID/Hint                    : MP3\nDuration                         : 2h 10mn\nBit rate mode                    : Constant\nBit rate                         : 96.0 Kbps\nChannel(s)                       : 2 channels\nSampling rate                    : 48.0 KHz\nStream size                      : 89.9 MiB (10%)\nAlignment                        : Split accross interleaves\nInterleave, duration             : 24 ms (0.58 video frame)","torrent":{"xt":"urn:btih:cc101aa8cc8a4d88e3aac13e81a33e8746d5437b","amp;dn":"I+Hate+Love+Storys+%282010%29+1%2F5+PDVD+Rip+x264+MP3+Multi-Subs+%5BTikr","amp;tr":["udp%3A%2F%2Ftracker.openbittorrent.com%3A80","udp%3A%2F%2Fopen.demonii.com%3A1337","udp%3A%2F%2Ftracker.coppersurfer.tk%3A6969","udp%3A%2F%2Fexodus.desync.com%3A6969"],"infoHash":"cc101aa8cc8a4d88e3aac13e81a33e8746d5437b","infoHashBuffer":{"type":"Buffer","data":[204,16,26,168,204,138,77,136,227,170,193,62,129,163,62,135,70,213,67,123]},"announce":[],"urlList":[]}}